<?xml version="1.0" standalone="no"?>
<!DOCTYPE svg PUBLIC "-//W3C//DTD SVG 1.1//EN" "http://www.w3.org/Graphics/SVG/1.1/DTD/svg11.dtd" >
<svg xmlns="http://www.w3.org/2000/svg">
<metadata>Generated by IcoMoon</metadata>
<defs>
<font id="makestar" horiz-adv-x="1024">
<font-face units-per-em="1024" ascent="960" descent="-64" />
<missing-glyph horiz-adv-x="1024" />
<glyph unicode="&#x20;" horiz-adv-x="512" d="" />
<glyph unicode="&#xe900;" glyph-name="arrow-bottom-sm" d="M747.008 601.6l-235.008-234.496-235.008 234.496-72.192-72.192 307.2-307.2 307.2 307.2-72.192 72.192z" />
<glyph unicode="&#xe901;" glyph-name="arrow-next-sm" d="M430.592 755.2l-72.192-72.192 234.496-235.008-234.496-235.008 72.192-72.192 307.2 307.2-307.2 307.2z" />
<glyph unicode="&#xe902;" glyph-name="arrow-next" d="M307.2 36.864l90.624-90.624 506.88 506.88-506.88 506.88-90.624-90.624 416.256-416.256-416.256-416.256z" />
<glyph unicode="&#xe903;" glyph-name="arrow-prev-sm" d="M635.392 683.008l-72.192 72.192-307.2-307.2 307.2-307.2 72.192 72.192-234.496 235.008 234.496 235.008z" />
<glyph unicode="&#xe904;" glyph-name="arrow-prev" d="M751.104 869.376l-91.136 90.624-506.368-506.88 506.88-506.88 90.624 90.624-416.256 416.256 416.256 416.256z" />
<glyph unicode="&#xe905;" glyph-name="arrow-top-sm" d="M512 652.8l-307.2-307.2 72.192-72.192 235.008 234.496 235.008-234.496 72.192 72.192-307.2 307.2z" />
<glyph unicode="&#xe906;" glyph-name="cancel" d="M512 960c-283.136 0-512-228.864-512-512s228.864-512 512-512c283.136 0 512 228.864 512 512s-228.864 512-512 512zM732.16 227.84c-19.968-19.968-52.224-19.968-72.192 0l-147.968 147.968-147.968-147.968c-19.968-19.968-52.224-19.968-72.192 0s-19.968 52.224 0 72.192l147.968 147.968-147.968 147.968c-19.968 19.968-19.968 52.224 0 72.192s52.224 19.968 72.192 0l147.968-147.968 147.968 147.968c19.968 19.968 52.224 19.968 72.192 0s19.968-52.224 0-72.192l-147.968-147.968 147.968-147.968c19.456-19.456 19.456-52.224 0-72.192z" />
<glyph unicode="&#xe907;" glyph-name="close" d="M1024 856.868l-103.132 103.132-408.868-408.868-408.868 408.868-103.132-103.132 408.868-408.868-408.868-408.868 103.132-103.132 408.868 408.868 408.868-408.868 103.132 103.132-408.868 408.868 408.868 408.868z" />
<glyph unicode="&#xe908;" glyph-name="language" d="M511.488 960c-282.624 0-511.488-229.376-511.488-512s228.864-512 511.488-512c283.136 0 512.512 229.376 512.512 512s-229.376 512-512.512 512zM866.304 652.8h-151.040c-16.384 64-39.936 125.44-70.656 182.272 94.208-32.256 172.544-97.792 221.696-182.272zM512 855.552c42.496-61.44 75.776-129.536 97.792-202.752h-195.584c22.016 73.216 55.296 141.312 97.792 202.752zM115.712 345.6c-8.192 32.768-13.312 67.072-13.312 102.4s5.12 69.632 13.312 102.4h173.056c-4.096-33.792-7.168-67.584-7.168-102.4s3.072-68.608 7.168-102.4h-173.056zM157.696 243.2h151.040c16.384-64 39.936-125.44 70.656-182.272-94.208 32.256-172.544 97.28-221.696 182.272v0zM308.736 652.8h-151.040c49.152 84.992 127.488 150.016 221.696 182.272-30.72-56.832-54.272-118.272-70.656-182.272v0zM512 40.448c-42.496 61.44-75.776 129.536-97.792 202.752h195.584c-22.016-73.216-55.296-141.312-97.792-202.752zM631.808 345.6h-239.616c-4.608 33.792-8.192 67.584-8.192 102.4s3.584 69.12 8.192 102.4h239.616c4.608-33.28 8.192-67.584 8.192-102.4s-3.584-68.608-8.192-102.4zM644.608 60.928c30.72 56.832 54.272 118.272 70.656 182.272h151.040c-49.152-84.48-127.488-150.016-221.696-182.272v0zM735.232 345.6c4.096 33.792 7.168 67.584 7.168 102.4s-3.072 68.608-7.168 102.4h173.056c8.192-32.768 13.312-67.072 13.312-102.4s-5.12-69.632-13.312-102.4h-173.056z" />
<glyph unicode="&#xe909;" glyph-name="menu" d="M0 89.6h1024v110.935h-1024v-110.935zM0 366.935h1024v110.931h-1024v-110.931zM0 755.2v-110.934h1024v110.934h-1024z" />
<glyph unicode="&#xe90a;" glyph-name="more-h" d="M204.8 550.4c-56.32 0-102.4-46.080-102.4-102.4s46.080-102.4 102.4-102.4c56.32 0 102.4 46.080 102.4 102.4s-46.080 102.4-102.4 102.4zM819.2 550.4c-56.32 0-102.4-46.080-102.4-102.4s46.080-102.4 102.4-102.4c56.32 0 102.4 46.080 102.4 102.4s-46.080 102.4-102.4 102.4zM512 550.4c-56.32 0-102.4-46.080-102.4-102.4s46.080-102.4 102.4-102.4c56.32 0 102.4 46.080 102.4 102.4s-46.080 102.4-102.4 102.4z" />
<glyph unicode="&#xe90b;" glyph-name="more-v" d="M512 652.8c56.32 0 102.4 46.080 102.4 102.4s-46.080 102.4-102.4 102.4c-56.32 0-102.4-46.080-102.4-102.4s46.080-102.4 102.4-102.4zM512 550.4c-56.32 0-102.4-46.080-102.4-102.4s46.080-102.4 102.4-102.4c56.32 0 102.4 46.080 102.4 102.4s-46.080 102.4-102.4 102.4zM512 243.2c-56.32 0-102.4-46.080-102.4-102.4s46.080-102.4 102.4-102.4c56.32 0 102.4 46.080 102.4 102.4s-46.080 102.4-102.4 102.4z" />
<glyph unicode="&#xe90c;" glyph-name="notification" d="M512-64c56.32 0 102.4 47.263 102.4 105.027h-204.8c0-57.764 46.080-105.027 102.4-105.027zM819.2 251.075v262.566c0 161.214-83.456 296.173-230.4 331.881v35.709c0 43.586-34.304 78.769-76.8 78.769s-76.8-35.184-76.8-78.769v-35.709c-146.432-35.708-230.4-170.141-230.4-331.881v-262.566l-102.4-105.021v-52.516h819.2v52.516l-102.4 105.021zM716.8 198.564h-409.6v315.077c0 130.232 77.312 236.308 204.8 236.308s204.8-106.076 204.8-236.308v-315.077z" />
<glyph unicode="&#xe90d;" glyph-name="search" d="M731.848 315.976h-46.254l-16.394 15.805c57.38 66.744 91.919 153.397 91.919 247.658 0 210.186-170.373 380.56-380.558 380.56-210.186 0-380.56-170.374-380.56-380.56s170.374-380.558 380.56-380.558c94.262 0 180.914 34.54 247.658 91.919l15.805-16.394v-46.254l292.741-292.152 87.235 87.235-292.152 292.741zM380.56 315.976c-145.784 0-263.465 117.678-263.465 263.464 0 145.784 117.681 263.465 263.465 263.465 145.786 0 263.464-117.681 263.464-263.465 0-145.786-117.678-263.464-263.464-263.464z" />
<glyph unicode="&#xe90e;" glyph-name="setting" d="M903.69 398.080c1.976 16 3.292 32.64 3.292 49.92s-1.316 33.92-3.953 49.92l111.252 84.48c9.876 7.68 12.508 21.76 6.584 32.64l-105.329 177.28c-6.584 11.52-20.408 15.36-32.256 11.52l-131-51.2c-27.648 20.48-56.617 37.12-88.873 49.92l-19.748 135.68c-1.976 12.8-13.169 21.76-26.332 21.76h-210.657c-13.166 0-23.699-8.96-25.674-21.76l-19.749-135.68c-32.257-12.8-61.88-30.080-88.871-49.92l-131.002 51.2c-11.85 4.48-25.674 0-32.257-11.52l-105.328-177.28c-6.583-11.52-3.95-24.96 6.583-32.64l111.253-84.48c-2.633-16-4.609-33.28-4.609-49.92s1.317-33.92 3.95-49.92l-111.253-84.48c-9.875-7.68-12.508-21.76-6.583-32.64l105.328-177.28c6.583-11.52 20.407-15.36 32.257-11.52l131.002 51.2c27.649-20.48 56.614-37.12 88.871-49.92l19.749-135.68c2.633-12.8 13.166-21.76 26.332-21.76h210.657c13.164 0 24.356 8.96 25.672 21.76l19.753 135.68c32.256 12.8 61.88 30.080 88.868 49.92l131-51.2c11.853-4.48 25.677 0 32.261 11.52l105.324 177.28c6.584 11.52 3.953 24.96-6.579 32.64l-109.937 84.48zM512 256c-108.62 0-197.49 86.4-197.49 192s88.87 192 197.49 192c108.621 0 197.489-86.4 197.489-192s-88.868-192-197.489-192z" />
<glyph unicode="&#xe90f;" glyph-name="user" d="M512 448c141.44 0 256 114.56 256 256s-114.56 256-256 256c-141.44 0-256-114.56-256-256s114.56-256 256-256zM512 320c-170.88 0-512-85.76-512-256v-128h1024v128c0 170.24-341.12 256-512 256z" />
<glyph unicode="&#xe910;" glyph-name="add" d="M1024 396.8h-460.8v-460.8h-51.2v460.8h-460.8v51.2h460.8v460.8h51.2v-460.8h460.8v-51.2z" />
<glyph unicode="&#xe911;" glyph-name="heart" d="M512-30.72l-74.24 67.584c-263.68 239.104-437.76 396.8-437.76 590.336 0 157.696 123.904 281.6 281.6 281.6 89.088 0 174.592-41.472 230.4-107.008 55.808 65.536 141.312 107.008 230.4 107.008 157.696 0 281.6-123.904 281.6-281.6 0-193.536-174.080-351.232-437.76-590.848l-74.24-67.072z" />
<glyph unicode="&#xe912;" glyph-name="share" d="M398.222 676.694v232.106l-398.222-406.186 398.222-406.189v237.911c284.443 0 483.554-92.841 625.778-295.936-56.888 290.135-227.553 580.266-625.778 638.294z" />
<glyph unicode="&#xe913;" glyph-name="quote" d="M512-64c282.767 0 512 229.233 512 512 0 282.77-229.233 512-512 512-282.77 0-512-229.23-512-512 0-282.767 229.23-512 512-512zM424.229 301.716h-87.771l58.513 117.028h-87.771v175.543h175.542v-175.543l-58.513-117.028zM658.289 301.716h-87.777l58.516 117.028h-87.772v175.543h175.544v-175.543l-58.511-117.028z" />
<glyph unicode="&#xe914;" glyph-name="youku" d="M212.366 587.41c-30.181 10.643-40.489-5.201-46.821-20.166l-51.080-121.123-48.725 121.552c-7.996 16.409-21.37 27.9-46.392 19.517-26.56-8.881-18.642-35.698-16.861-41.728v-0.001l0.107-0.362 76.426-174.955-30.003-65.576c-3.987-8.802-11.187-33.225 15.583-43.682 26.801-10.442 39.088 4.889 47.836 22.795l116.623 261.628c0 0 14.485 31.081-16.692 42.101zM317.888 569.128c-58.909 0-106.671-46.842-106.671-104.609 0-57.779 40.94-104.64 106.671-104.64 70.713 0 106.639 46.861 106.639 104.64-0.010 57.768-47.764 104.609-106.639 104.609zM317.888 407.045c-26.288 0-47.576 24.99-47.576 55.768 0 30.82 21.287 55.779 47.576 55.779 26.236 0 47.542-24.959 47.542-55.779-0.010-30.778-21.328-55.768-47.542-55.768zM592.596 563.257c-18.232-1.193-27.524-11.878-28.77-31.636l-0.031-97.086c-1.014-20.69-14.86-34.868-37.969-35.454-34.261-0.86-38.907 23.597-38.857 32.316l0.074 97.42c-0.774 19.465-9.711 29.25-27.334 30.014-18.911-1.371-28.915-12.255-30.151-31.981l-0.126-96.793c0.014-0.393 0.024-0.843 0.036-1.338 0.336-14.788 1.669-73.233 96.182-71.906 54.932 0.712 93.494 30.015 96.080 79.515l0.231 97.419c-0.9 19.538-10.559 29.104-29.365 29.512zM988.093 561.728c-18.22-0.659-28.15-11.166-28.893-30.684v-96.928c-1.069-20.492-17.184-33.835-38.25-33.835-22.145 0-37.257 13.364-38.324 33.835l-0.169 96.928c-1.024 19.507-10.023 30.098-27.931 30.747-19.82 0-28.903-11.302-29.929-30.82v-96.981c2.072-48.747 34.042-74.364 96.185-75.35 62.519 0.986 93.894 26.541 96.582 75.485v96.929c-1.055 19.496-10.976 30.003-29.27 30.673zM755.14 462.959l51.593 44.937c0 0 25.514 24.258 3.16 45.534-16.408 15.666-37.328 6.677-44.873-0.251l-75.297-71.153-0.41 51.52c-0.469 17.351-10.245 28.392-30.463 28.392-20.804 0-29.375-10.413-30.422-28.35v-147.798c1.067-17.227 11.45-25.619 30.506-25.619 19.894-0.083 29.846 9.042 30.653 25.514l0.074 54.972c0 0 79.429-67.165 83.761-70.858 12.8-10.497 33.782-9.378 44.227 0.648 11.040 10.611 8.444 32.38-4.868 43.651l-57.642 48.861z" />
<glyph unicode="&#xe915;" glyph-name="weibo" d="M1004.115 631.826c-9.26 45.876-29.652 86.227-61.211 121.043-31.559 35.176-69.276 59.569-113.176 73.178-43.881 13.604-88.118 15.686-132.74 6.258-10.162-2.178-18.052-7.525-23.674-16.052-5.622-8.529-7.344-17.864-5.159-28.021 2.175-10.156 7.602-18.043 16.321-23.665 8.689-5.621 18.13-7.346 28.277-5.168 31.559 6.525 62.942 4.981 94.125-4.627 31.193-9.611 58.036-26.925 80.525-51.952 22.479-24.665 37.005-53.313 43.53-85.96 6.539-32.638 4.725-63.832-5.437-93.571-2.896-9.798-1.994-19.226 2.726-28.295 4.71-9.067 11.961-15.229 21.753-18.497 9.796-3.257 19.227-2.537 28.292 2.178 9.070 4.714 15.238 11.967 18.505 21.761 14.141 41.71 16.589 85.506 7.344 131.39zM459.803 408.483c-38.442 9.796-76.617 6.339-114.518-10.338-37.905-16.686-65.373-41.882-82.422-75.62-17.047-34.445-18.23-68.452-3.539-102 14.692-33.553 41.436-56.491 80.246-68.832 40.256-13.049 80.884-10.874 121.864 6.544 40.984 17.408 69.632 44.612 85.967 81.598 16.311 36.279 15.862 70.817-1.37 103.648-17.232 32.812-45.968 54.482-86.228 65zM401.589 232.214c-7.98-12.327-19.313-20.948-34.010-25.834-14.688-4.905-28.207-4.452-40.532 1.356-12.328 5.803-20.126 14.96-23.39 27.477-3.266 12.503-0.909 24.917 7.070 37.259 7.612 11.976 18.497 20.309 32.64 25.020 14.15 4.715 27.386 4.54 39.719-0.541 12.695-5.437 20.862-14.512 24.488-27.199 3.624-12.693 1.633-25.2-5.984-37.537zM452.723 298.057c-2.535-4.72-6.527-8.080-11.965-10.074-5.441-1.994-10.705-2.077-15.778-0.273-10.877 5.086-13.234 13.234-7.071 24.478 2.538 4.725 6.437 8.075 11.691 10.074 5.256 1.994 10.425 2.082 15.503 0.268 4.715-1.804 7.89-5.169 9.524-10.069 1.631-4.881 1.003-9.699-1.903-14.404zM766.625 458.012c20.675-6.526 39.361-15.049 56.032-25.572 16.691-10.513 31.208-25.298 43.535-44.359 12.342-19.037 18.5-40.17 18.5-63.386 0-24.649-6.719-49.952-20.139-75.883-13.429-25.946-33.187-50.776-59.309-74.533-26.107-23.762-56.666-45.076-91.672-63.927-34.992-18.861-75.986-33.909-122.948-45.158-46.963-11.24-96.012-16.857-147.154-16.857-51.139 0-101.012 6.081-149.613 18.222-48.599 12.147-92.216 29.028-130.837 50.6-38.631 21.572-69.725 48.957-93.306 82.149-23.57 33.192-35.357 69.374-35.357 108.534 0 41.721 12.597 86.138 37.806 133.296 25.206 47.149 61.025 93.938 107.447 140.36 61.301 61.301 123.228 104.095 185.781 128.402 62.57 24.301 107.268 23.032 134.106-3.805 23.576-23.217 27.199-61.114 10.884-113.707-1.448-5.078-1.634-8.704-0.546-10.882 1.092-2.178 2.906-3.447 5.437-3.805 2.536-0.36 5.169-0.275 7.895 0.275 2.716 0.549 5.169 1.176 7.329 1.902l3.277 1.090c50.405 21.395 95.013 32.098 133.822 32.098 38.819 0 66.555-11.066 83.246-33.188 16.311-22.849 16.311-55.129 0-96.837-0.727-4.714-1.536-8.339-2.448-10.876-0.917-2.537-0.093-4.806 2.448-6.805 2.531-1.997 4.715-3.353 6.529-4.079 1.814-0.728 4.901-1.81 9.255-3.268zM444.023 105.989c80.879 8.343 147.888 34.002 201.019 76.976 53.136 42.993 77.151 90.956 72.080 143.916-3.262 34.816-19.393 65.648-48.416 92.492-29.013 26.843-66.838 46.607-113.44 59.3-46.592 12.694-96.369 16.509-149.324 11.425-80.878-8.34-147.888-33.998-201.021-76.986-53.134-42.979-77.166-90.946-72.084-143.892 3.264-34.821 19.404-65.653 48.419-92.501 29.012-26.839 66.827-46.602 113.43-59.304 46.602-12.693 96.384-16.506 149.337-11.425zM830.284 520.564c-8.343 2.904-14.497 8.251-18.505 16.050-3.984 7.798-4.72 15.869-2.155 24.21 7.246 22.853 2.906 42.983-13.063 60.388-15.965 17.407-35.357 23.756-58.212 19.040-8.709-1.809-16.867-0.358-24.493 4.356-7.607 4.714-12.132 11.424-13.585 20.13-1.819 8.703-0.371 16.775 4.34 24.206 4.715 7.433 11.425 12.060 20.139 13.876 21.758 4.714 43.335 3.72 64.736-2.99 21.392-6.713 39.721-18.592 54.955-35.641 15.219-17.047 25.103-36.727 29.628-59.030 4.554-22.3 3.365-43.615-3.521-63.921-2.901-8.346-8.251-14.513-16.057-18.497-7.797-3.994-15.852-4.716-24.205-2.178z" />
<glyph unicode="&#xe916;" glyph-name="naver" d="M0-12.8c116.141 0 233.917 0 350.057 0 1.636 152.678-1.636 303.749 1.636 456.422 37.623-53.033 73.61-107.674 112.869-159.104 65.43-99.645 139.040-194.463 202.835-295.716 117.775-3.21 235.556 0 353.331-1.603 1.633 14.464 3.272 28.928 3.272 43.387-1.638 290.893 0 585-1.638 877.499-116.137 1.607-232.279 0-348.421 0-1.633-152.678 1.638-305.355-1.633-458.033-107.96 151.070-211.016 305.355-322.25 454.818-116.141 4.821-233.917 1.607-350.057 1.607 0-305.355 0-612.319 0-919.279z" />
<glyph unicode="&#xe917;" glyph-name="facebook" d="M558.080-64v466.821h158.72l25.6 180.708h-184.32v115.451c0 55.216 15.36 90.353 92.16 90.353h97.28v165.647c-15.36 0-76.8 5.020-143.36 5.020-143.36 0-240.64-85.334-240.64-240.941v-135.529h-158.72v-180.708h158.72v-466.821h194.56z" />
<glyph unicode="&#xe918;" glyph-name="instagram" d="M728.95 960h-433.899c-161.989 0-295.051-133.062-295.051-295.051v-433.899c0-161.987 133.062-295.050 295.051-295.050h433.899c161.987 0 295.050 133.064 295.050 295.050v433.899c-5.786 161.989-133.064 295.051-295.050 295.051zM925.65 225.265c0-109.921-86.779-196.7-196.7-196.7h-439.684c-109.921 0-196.701 86.779-196.701 196.7v312.81h166.868c-10.619-28.76-16.445-60.034-16.445-92.973 0-144.635 115.706-266.122 266.124-266.122 144.635 0 266.122 115.702 266.122 266.122 0 32.939-5.827 64.214-16.445 92.973h166.861v-312.81zM735.821 735.392c0 40.714 33.925 74.642 74.639 74.642 33.93 0 67.855-33.928 74.644-74.642 0-40.714-33.93-74.642-74.644-74.642s-74.639 33.928-74.639 74.642zM335.553 450.887c0 92.565 75.209 173.559 173.559 173.559 92.564 0 173.558-75.209 173.558-173.559s-75.208-173.557-173.558-173.557c-92.565 0-173.559 75.208-173.559 173.557z" />
<glyph unicode="&#xe919;" glyph-name="youtube" d="M1002.056 676.073c-21.939 79.644-58.511 108.606-124.344 115.846-36.567 7.241-226.744 14.481-373.027 14.481-146.285 0-329.141-7.24-373.027-14.481-58.514-7.24-95.085-36.202-117.028-115.846-7.314-21.722-14.629-166.53-14.629-217.212v-14.48c0-50.683 7.314-195.492 14.629-217.211 21.943-79.647 58.514-108.605 124.343-123.090 36.572-7.24 226.743-14.479 373.027-14.479 146.291 0 329.146 7.24 373.030 14.479 65.828 7.24 102.4 43.443 124.339 115.85 7.316 28.959 14.633 166.528 14.633 217.211v21.72c-7.316 50.683-14.633 195.491-21.944 217.212zM387.657 321.29v260.657l241.371-123.087-241.371-137.57z" />
<glyph unicode="&#xe91a;" glyph-name="twitter" d="M1024 763.077c-38.395-18.905-76.8-31.508-121.595-31.508 44.795 25.206 76.795 63.015 89.595 113.428-38.395-25.206-83.2-37.809-134.4-50.413-38.395 37.809-89.6 63.015-153.595 63.015-108.805 0-204.804-94.523-204.804-207.951 0-18.905 0-31.507 6.402-44.111-172.803 6.302-326.403 88.222-428.803 214.253-19.2-31.508-25.6-63.015-25.6-100.825 0-69.317 38.4-132.333 96.001-170.142-32 0-64.001 12.603-96.001 25.206 0-100.825 70.401-182.745 166.401-201.648-19.2-12.605-38.401-12.605-57.6-12.605-12.8 0-25.601 0-38.4 6.303 25.6-81.92 102.4-138.634 192.001-144.937-70.401-56.714-160.001-88.223-262.401-88.223-19.2 0-32 0-51.2 0 89.6-56.709 204.801-94.52 320.001-94.52 384.004 0 595.199 315.080 595.199 586.043 0 6.302 0 18.905 0 25.206 44.8 31.508 83.2 69.317 108.8 113.428z" />
<glyph unicode="&#xe91b;" glyph-name="join" d="M448.016 75.51l47.333-47.334h-495.35v110.080c0 146.401 293.357 220.155 440.311 220.155 17.613 0 33.574-1.101 55.039-3.302l-46.233-45.133c-65.496-63.841-66.046-169.518-1.101-234.465zM660.465 688.645c0-121.636-98.519-220.156-220.154-220.156s-220.155 98.52-220.155 220.156 98.52 220.155 220.155 220.155c121.635 0 220.154-98.52 220.154-220.155zM533.33 155.315l113.93-115.031c21.463-21.463 56.689-21.463 78.152 0l282.9 285.102c20.915 20.915 20.915 55.040 0 76.503l-0.548 0.553c-21.468 21.463-56.141 21.463-77.609 0l-243.82-245.473-75.402 75.402c-20.915 21.463-55.593 21.463-77.056 0l-0.548-0.553c-20.915-20.91-20.915-55.035 0-76.503z" />
<glyph unicode="&#xe91c;" glyph-name="vote" horiz-adv-x="975" d="M780.19 423.556h-33.158l-97.524-97.524h93.135l86.309-97.524h-682.667l86.796 97.524h99.962l-97.524 97.524h-40.472l-146.286-146.286v-195.048c0-53.638 43.398-97.524 97.036-97.524h683.154c53.638 0 97.524 43.398 97.524 97.524v195.048l-146.286 146.286zM731.429 669.805l-241.371-241.373-172.617 172.619 241.371 241.371 172.617-172.617zM524.678 945.798l-310.613-310.613c-19.017-19.017-19.017-49.737 0-68.754l241.371-241.373c19.017-19.017 49.737-19.017 68.754 0l310.126 310.128c19.017 19.017 19.017 49.737 0 68.754l-241.371 241.371c-18.53 19.505-49.25 19.505-68.267 0.488z" />
<glyph unicode="&#xe91d;" glyph-name="alarm" horiz-adv-x="975" d="M975.238 771.779l-224.305 188.221-62.903-74.606 224.305-188.221 62.903 74.606zM286.72 885.394l-62.415 74.606-224.305-187.733 62.903-74.606 223.817 187.733zM512 660.602h-73.143v-292.571l231.619-138.971 36.571 59.977-195.048 115.566v256zM487.619 855.65c-242.347 0-438.857-196.51-438.857-438.857s196.023-438.857 438.857-438.857c242.347 0 438.857 196.51 438.857 438.857s-196.51 438.857-438.857 438.857zM487.619 75.459c-188.709 0-341.333 152.625-341.333 341.333s152.625 341.333 341.333 341.333c188.709 0 341.333-152.625 341.333-341.333s-152.625-341.333-341.333-341.333z" />
<glyph unicode="&#xe91e;" glyph-name="play" d="M512 960c-282.624 0-512-229.376-512-512s229.376-512 512-512c282.624 0 512 229.376 512 512s-229.376 512-512 512zM409.6 268.8v358.4c0 20.992 24.064 33.28 40.96 20.48l239.104-179.2c13.824-10.24 13.824-30.72 0-40.96l-239.104-179.2c-16.896-12.8-40.96-0.512-40.96 20.48z" />
<glyph unicode="&#xe91f;" glyph-name="comment" d="M921.6 960h-819.2c-56.32 0-101.888-46.080-101.888-102.4l-0.512-921.6 204.8 204.8h716.8c56.32 0 102.4 46.080 102.4 102.4v614.4c0 56.32-46.080 102.4-102.4 102.4zM819.2 345.6h-614.4v102.4h614.4v-102.4zM819.2 499.2h-614.4v102.4h614.4v-102.4zM819.2 652.8h-614.4v102.4h614.4v-102.4z" />
<glyph unicode="&#xe920;" glyph-name="edit" d="M170.667 241.754v-177.754h177.753l524.254 524.253-177.754 177.753-524.254-524.253zM1010.133 725.716c18.487 18.486 18.487 48.349 0 66.835l-110.916 110.918c-18.487 18.486-48.35 18.486-66.833 0l-86.746-86.744 177.754-177.753 86.741 86.743z" />
<glyph unicode="&#xe921;" glyph-name="grid-view" d="M60.235 503.138h180.706c33.129 0 60.235 26.585 60.235 59.077v236.307c0 32.493-27.106 59.077-60.235 59.077h-180.706c-33.129 0-60.235-26.585-60.235-59.077v-236.307c0-32.493 27.106-59.077 60.235-59.077zM60.235 89.6h180.706c33.129 0 60.235 26.583 60.235 59.075v236.308c0 32.492-27.106 59.080-60.235 59.080h-180.706c-33.129 0-60.235-26.588-60.235-59.080v-236.308c0-32.492 27.106-59.075 60.235-59.075zM421.647 89.6h180.706c33.132 0 60.237 26.583 60.237 59.075v236.308c0 32.492-27.105 59.080-60.237 59.080h-180.706c-33.129 0-60.235-26.588-60.235-59.080v-236.308c0-32.492 27.106-59.075 60.235-59.075zM783.058 89.6h180.705c33.132 0 60.237 26.583 60.237 59.075v236.308c0 32.492-27.105 59.080-60.237 59.080h-180.705c-33.126 0-60.237-26.588-60.237-59.080v-236.308c0-32.492 27.11-59.075 60.237-59.075zM421.647 503.138h180.706c33.132 0 60.237 26.585 60.237 59.077v236.307c0 32.493-27.105 59.077-60.237 59.077h-180.706c-33.129 0-60.235-26.585-60.235-59.077v-236.307c0-32.493 27.106-59.077 60.235-59.077zM722.821 798.523v-236.307c0-32.493 27.11-59.077 60.237-59.077h180.705c33.132 0 60.237 26.585 60.237 59.077v236.307c0 32.493-27.105 59.077-60.237 59.077h-180.705c-33.126 0-60.237-26.585-60.237-59.077z" />
<glyph unicode="&#xe922;" glyph-name="list-view" d="M60.235 330.972h120.471c33.129 0 60.235 26.332 60.235 58.511v117.031c0 32.183-27.106 58.514-60.235 58.514h-120.471c-33.129 0-60.235-26.331-60.235-58.514v-117.031c0-32.179 27.106-58.511 60.235-58.511zM60.235 38.4h120.471c33.129 0 60.235 26.332 60.235 58.516v117.028c0 32.179-27.106 58.511-60.235 58.511h-120.471c-33.129 0-60.235-26.332-60.235-58.511v-117.028c0-32.184 27.106-58.516 60.235-58.516zM60.235 623.543h120.471c33.129 0 60.235 26.332 60.235 58.514v117.028c0 32.183-27.106 58.514-60.235 58.514h-120.471c-33.129 0-60.235-26.332-60.235-58.514v-117.028c0-32.183 27.106-58.514 60.235-58.514zM361.412 330.972h602.352c33.132 0 60.237 26.332 60.237 58.511v117.031c0 32.183-27.105 58.514-60.237 58.514h-602.352c-33.129 0-60.235-26.331-60.235-58.514v-117.031c0-32.179 27.106-58.511 60.235-58.511zM361.412 38.4h602.352c33.132 0 60.237 26.332 60.237 58.516v117.028c0 32.179-27.105 58.511-60.237 58.511h-602.352c-33.129 0-60.235-26.332-60.235-58.511v-117.028c0-32.184 27.106-58.516 60.235-58.516zM301.176 799.086v-117.028c0-32.183 27.106-58.514 60.235-58.514h602.352c33.132 0 60.237 26.332 60.237 58.514v117.028c0 32.183-27.105 58.514-60.237 58.514h-602.352c-33.129 0-60.235-26.332-60.235-58.514z" />
<glyph unicode="&#xe923;" glyph-name="one-col-layout" d="M0 740.572v146.286c0 40.229 38.4 73.143 85.358 73.143h853.287c46.956 0 85.356-32.914 85.356-73.143v-146.286c0-40.229-38.4-73.143-85.356-73.143h-853.287c-46.958 0-85.358 32.914-85.358 73.143zM85.358 301.716h853.287c46.956 0 85.356 32.911 85.356 73.139v146.287c0 40.229-38.4 73.143-85.356 73.143h-853.287c-46.958 0-85.358-32.914-85.358-73.143v-146.287c0-40.228 38.4-73.139 85.358-73.139zM85.358-64h853.287c46.956 0 85.356 32.916 85.356 73.144v146.284c0 40.228-38.4 73.144-85.356 73.144h-853.287c-46.958 0-85.358-32.916-85.358-73.144v-146.284c0-40.228 38.4-73.144 85.358-73.144z" />
<glyph unicode="&#xe924;" glyph-name="two-col-layout" d="M378.093 487.385h-283.57c-51.988 0-94.523 35.446-94.523 78.769v315.077c0 43.323 42.535 78.769 94.523 78.769h283.57c51.987 0 94.523-35.446 94.523-78.769v-315.077c0-43.323-42.535-78.769-94.523-78.769zM378.093-64h-283.57c-51.988 0-94.523 35.446-94.523 78.771v315.075c0 43.325 42.535 78.771 94.523 78.771h283.57c51.987 0 94.523-35.446 94.523-78.771v-315.075c0-43.325-42.535-78.771-94.523-78.771zM645.908-64h283.566c51.988 0 94.525 35.446 94.525 78.771v315.075c0 43.325-42.537 78.771-94.525 78.771h-283.566c-51.988 0-94.525-35.446-94.525-78.771v-315.075c0-43.325 42.537-78.771 94.525-78.771zM929.475 487.385h-283.566c-51.988 0-94.525 35.446-94.525 78.769v315.077c0 43.323 42.537 78.769 94.525 78.769h283.566c51.988 0 94.525-35.446 94.525-78.769v-315.077c0-43.323-42.537-78.769-94.525-78.769z" />
<glyph unicode="&#xe925;" glyph-name="play-arrow" d="M102.4 877.054v-858.11c0-65.434 74.642-105.19 132.126-69.576l698.379 429.056c53.192 32.302 53.192 106.849 0 139.98l-698.379 428.226c-57.483 35.617-132.126-4.141-132.126-69.577z" />
<glyph unicode="&#xe926;" glyph-name="baidu-circle" d="M1024 448c0 282.77-229.233 512-512 512-282.77 0-512-229.23-512-512 0-282.767 229.23-512 512-512 282.767 0 512 229.233 512 512zM711.844 327.803c1.536-1.352 3.057-2.693 4.557-4.019 28.646-25.37 49.126-49.039 49.126-93.353 0-46.51-20.48-120.463-118.728-120.463-23.188 0-42.721 3.763-63.345 7.741-23.066 4.444-47.493 9.155-79.931 9.155-21.915 0-37.318-3.369-54.373-7.096-21.152-4.623-44.845-9.8-86.655-9.8-57.514 0-120.946 35.896-120.946 124.641 0 69.386 57.307 111.386 77.45 126.147 1.938 1.423 3.532 2.591 4.698 3.507 36.551 28.785 50.489 45.706 85.988 95.913 24.263 34.304 48.81 55.438 93.838 55.438 40.958 0 68.78-22.869 100.324-67.612 46.546-66.059 80.22-95.73 107.996-120.198zM359.907 529.921c0.085-33.678-8.221-85.136-61.014-96.882-6.183-1.413-12.517-2.063-18.858-1.935-49.323 1.423-71.737 56.577-72.249 94.835-0.057 5.917 0.37 11.434 1.308 16.27 0 0 8.448 86.158 66.105 91.478 2.052 0.185 4.112 0.262 6.173 0.227 42.666-0.739 73.586-49.294 76.914-77.654l0.058-0.54c0.556-5.135 1.563-14.434 1.563-25.8zM512.056 684.659c0-56.064-33.962-101.433-76.003-101.433s-76.118 45.398-76.118 101.433c0 56.064 34.077 101.376 76.118 101.376s76.003-45.312 76.003-101.376zM616.279 566.359c-3.528-0.142-7.199 0.028-10.895 0.54v0.029c-45.312 6.172-59.96 45.084-59.535 88.234 0.056 6.115 0.425 12.374 1.055 18.631 4.152 40.846 50.058 103.481 86.84 94.492 33.28-8.078 63.944-51.541 64.225-92.786 0.031-4.181-0.256-8.334-0.911-12.43-6.144-41.33-35.21-94.947-80.778-96.711zM735.8 583.226c63.176 0 80.159-65.28 80.159-86.926 0-1.726 0.046-3.907 0.108-6.45 0.041-1.731 0.082-3.629 0.118-5.667 0.512-32.711-2.135-102.174-70.175-103.767l-4.521-0.026c-74.24 0.481-77.368 56.97-77.368 97.705 0 43.52 8.361 105.13 71.68 105.13z" />
<glyph unicode="&#xe927;" glyph-name="ameblo-circle" d="M512-64c282.767 0 512 229.233 512 512 0 282.77-229.233 512-512 512-282.77 0-512-229.23-512-512 0-282.767 229.23-512 512-512zM789.786 279.404c25.298-16.451 39.332-25.574 47.048-44.308 5.632-13.599 5.601-33.311-11.121-41.728-10.47-5.32-23.27-4.383-36.552 0.937-2.319 0.947-4.628 1.992-6.938 3.031v0c-7.936 3.579-15.795 7.127-23.557 6.641-7.649-0.312-13.88-4.521-14.986-17.183-1.080-12.969-7.199-18.601-16.727-18.601-7.649 0-15.16 5.32-20.623 19.681-0.922 2.458-1.777 4.864-2.596 7.173l-0.005 0.020c-4.291 12.104-7.639 21.545-15.375 21.422-9.984-0.169-12.344-10.778-12.969-25.8-0.942-21.386 7.194-37.97 23.122-52.649 18.463-16.896 32.2-32.824 27.197-53.617-3.446-14.822-19.686-24.376-45.312-25.631-25.774-1.249-68.127-1.536-97.679-0.768-27.479 0.63-43.295 12.518-46.705 28.278-2.099 9.605-0.082 15.903 1.853 21.929 1.684 5.258 3.302 10.301 2.068 17.152-1.592 8.105-9.242 11.72-17.352 11.72-8.136 0-15.956-3.615-17.35-11.72-1.233-6.856 0.376-11.904 2.051-17.162 1.92-6.021 3.927-12.324 1.846-21.919-3.442-15.759-19.228-27.648-46.734-28.278-29.525-0.794-71.879-0.481-97.65 0.799-25.628 1.224-41.728 10.778-45.34 25.6-4.836 20.792 8.903 36.721 27.193 53.617 15.786 14.679 24.064 31.263 23.125 52.649-0.768 14.991-3.1 25.631-12.97 25.8-7.586 0.118-10.836-8.96-15.048-20.726h-0.001c-0.905-2.524-1.853-5.176-2.899-7.89-5.49-14.362-12.829-19.681-20.651-19.681-9.529 0-15.616 5.632-16.697 18.601-1.081 12.631-7.338 16.896-15.018 17.183-7.662 0.364-15.242-3.011-22.937-6.436-2.504-1.116-5.020-2.237-7.556-3.236-13.426-5.32-26.083-6.257-36.693-0.937-16.726 8.448-16.726 28.129-11.094 41.728 7.692 18.708 21.646 27.786 46.833 44.17l2.717 1.766c20.309 13.281 34.19 31.089 36.693 67.328 1.507 22.651-0.099 41.139-1.891 61.752-1.929 22.2-4.072 46.865-2.774 81.863 1.849 52.054 20.452 91.278 32.171 114.233 13.767 27.050 16.27 46.25 17.209 77.511 0.516 15.641 0.37 41.867 0.238 65.577-0.109 19.41-0.207 37.134 0.075 45.982 0.768 20.025 8.732 32.853 22.499 39.253 16.555 7.652 34.219 5.149 49.067-10.951 13.738-14.848 38.428-41.387 55.466-57.031 22.186-20.31 36.409-24.861 56.094-24.861 19.712 0 33.761 4.381 56.12 24.861 17.009 15.616 41.871 42.183 55.465 57.031 14.848 16.27 32.512 18.602 49.070 10.951 13.594-6.4 21.56-19.228 22.354-39.082 0.276-9.188 0.195-27.674 0.102-47.719v-0.006c-0.102-23.266-0.215-48.634 0.21-64.005 0.942-31.232 3.415-50.489 17.183-77.511 11.546-22.954 30.321-62.179 32.2-114.205 1.29-34.748-0.876-59.348-2.826-81.471v0 0-0.005c-1.828-20.782-3.466-39.383-1.869-62.167 2.335-36.239 16.415-54.216 36.721-67.328l2.504-1.628zM410.896 567.652c-2.604-1.073-5.394-1.619-8.21-1.608-11.748 0-21.248 9.558-21.419 21.419-0.011 2.816 0.535 5.606 1.608 8.21s2.65 4.969 4.641 6.961c1.991 1.991 4.357 3.568 6.961 4.641s5.394 1.618 8.21 1.607c2.815 0.011 5.606-0.535 8.21-1.607s4.969-2.65 6.96-4.641c1.991-1.991 3.569-4.357 4.641-6.961s1.619-5.394 1.608-8.21c0.011-2.816-0.535-5.606-1.608-8.21s-2.65-4.969-4.641-6.961c-1.991-1.991-4.357-3.569-6.96-4.641zM522.522 567.609c50.007 0.17 85.647-11.235 120.177-40.618 23.583-20.167 39.055-60.331 21.422-90.797-9.073-15.299-26.911-27.505-47.672-29.379-27.648-2.504-45 7.506-55.926 19.538-10.496 11.551-21.898 22.501-37.827 22.501-15.931 0-27.366-10.95-37.833-22.501-10.923-12.032-28.274-22.042-55.95-19.538-20.765 1.731-38.599 14.080-47.645 29.379-18.147 30.495-2.674 70.63 21.078 90.797 34.56 29.241 70.173 40.789 120.177 40.618zM452.396 334.321c18.571 18.57 43.749 29.020 70.013 29.056 26.271-0.005 51.466-10.445 70.047-29.025 18.575-18.575 29.020-43.771 29.025-70.047-0.62-25.861-11.331-50.458-29.844-68.531-18.509-18.079-43.356-28.196-69.228-28.196s-50.718 10.117-69.23 28.196c-18.512 18.074-29.222 42.67-29.842 68.531 0.037 26.266 10.487 51.441 29.059 70.016zM650.286 567.652c-2.606-1.073-5.396-1.619-8.212-1.608v0.029c-5.443 0.344-10.552 2.748-14.285 6.725s-5.811 9.225-5.811 14.68c0 5.454 2.079 10.703 5.811 14.68s8.842 6.381 14.285 6.725c2.816 0.011 5.606-0.535 8.212-1.607 2.601-1.073 4.966-2.65 6.958-4.641s3.569-4.357 4.644-6.961c1.070-2.604 1.618-5.394 1.608-8.21 0.010-2.816-0.538-5.606-1.608-8.21-1.075-2.604-2.652-4.969-4.644-6.961s-4.357-3.569-6.958-4.641zM472.834 519.338c0-21.106 21.731-37.66 49.55-37.66 27.817 0 49.521 16.554 49.521 37.66 0 21.078-21.729 37.661-49.521 37.661-27.818 0-49.55-16.583-49.55-37.661z" />
<glyph unicode="&#xe928;" glyph-name="reddit-circle" d="M1024 448c0 282.766-229.233 512-512 512-282.766 0-512-229.234-512-512 0-282.767 229.234-512 512-512 282.767 0 512 229.233 512 512zM565.617 404.623c0-24.832 21.053-44.943 46.080-44.943 25.062 0 45.373 20.111 45.373 44.943s-20.342 45.624-45.373 45.624c-25.027 0-46.080-20.792-46.080-45.624zM512.312 238.080c50.688 0 86.671 11.233 109.998 34.335 1.695 1.674 3.041 3.671 3.963 5.873s1.393 4.567 1.393 6.953c0 2.386-0.471 4.751-1.393 6.953s-2.268 4.198-3.963 5.878c-3.451 3.4-8.1 5.304-12.943 5.304s-9.492-1.905-12.943-5.304c-16.128-15.928-43.633-23.695-84.137-23.695h-0.712c-40.477 0-67.982 7.767-84.054 23.695-3.449 3.4-8.098 5.304-12.942 5.304s-9.493-1.905-12.942-5.304c-1.701-1.679-3.052-3.676-3.974-5.878s-1.397-4.567-1.397-6.953c0-2.386 0.475-4.751 1.397-6.953s2.273-4.198 3.974-5.873c23.296-23.101 59.25-34.304 109.938-34.304h0.37l0.368-0.031zM412.958 450.247c-25.031 0-46.023-20.823-46.023-45.624 0-24.832 20.992-44.943 46.023-44.943 25.059 0 45.369 20.111 45.369 44.943 0 24.801-20.338 45.624-45.369 45.624zM766.126 660.537c0 16.782-13.798 30.464-30.751 30.464v-0.029c-16.983 0-30.776-13.653-30.776-30.435 0-16.839 13.793-30.493 30.776-30.493 16.952 0 30.751 13.682 30.751 30.493zM766.52 533.817c44.431 0 80.558-35.783 80.558-79.815-0.031-13.467-3.476-26.707-10.010-38.483-6.538-11.771-15.954-21.699-27.366-28.846 0.737-5.801 1.137-11.633 1.137-17.49 0-55.014-32.287-106.214-90.88-144.128-56.177-36.326-130.56-56.32-209.352-56.32-78.819 0-153.174 19.994-209.351 56.346-58.624 37.888-90.88 89.088-90.88 144.102 0 6.456 0.455 12.826 1.337 19.139-21.049 14.423-34.873 38.461-34.873 65.68 0 44.032 36.125 79.815 80.555 79.815 17.933 0.015 35.36-5.951 49.522-16.953 52.736 32.37 120.405 50.858 192.398 52.622l43.293 135.51c1.413 4.377 4.424 8.061 8.428 10.321s8.714 2.932 13.189 1.881l111.304-25.97c11.238 21.39 33.823 36.039 59.791 36.039 37.146 0 67.354-29.952 67.354-66.73 0-36.836-30.208-66.788-67.354-66.788-16.937-0.045-33.27 6.31-45.722 17.793s-20.111 27.245-21.437 44.131l-95.8 22.357-34.842-109.198c66.816-3.897 129.137-22.329 178.258-52.935 13.88 11.207 31.519 17.92 50.744 17.92z" />
<glyph unicode="&#xe929;" glyph-name="line-circle" d="M1024 448c0-282.767-229.233-512-512-512-282.766 0-512 229.233-512 512s229.234 512 512 512c282.767 0 512-229.234 512-512zM852.567 478.72c0 152.405-152.75 276.394-340.568 276.394-187.734 0-340.566-123.99-340.566-276.394 0-136.617 121.174-251.049 284.842-272.64 11.094-2.391 26.198-7.337 30.038-16.809 3.414-8.622 2.218-22.103 1.138-30.807l-5.044-30.090c-1.581-9.324-5.476-32.292 29.68-17.439 36.352 15.273 196.096 115.456 267.602 197.714 49.239 54.19 72.878 109.143 72.878 170.071zM442.769 552.361h-23.893c-1.765 0-3.459-0.701-4.707-1.95s-1.949-2.941-1.949-4.706v-148.393c0-3.671 2.986-6.656 6.656-6.656h23.893c0.874 0 1.74 0.169 2.547 0.507 0.808 0.333 1.542 0.824 2.16 1.439 0.618 0.62 1.108 1.357 1.443 2.161 0.334 0.809 0.506 1.674 0.506 2.55v148.478c-0.022 1.751-0.733 3.422-1.979 4.652s-2.926 1.919-4.677 1.919zM607.293 552.361h-23.895c-1.766 0-3.456-0.701-4.705-1.95s-1.951-2.941-1.951-4.706v-88.15l-68.608 92.587-0.426 0.427c-0.086 0-0.086 0.085-0.086 0.085l-0.342 0.256-0.17 0.171-0.342 0.256c-0.085 0.085-0.17 0.085-0.17 0.085-0.094 0.090-0.213 0.149-0.342 0.171-0.085 0-0.17 0.085-0.17 0.085-0.042 0.043-0.106 0.064-0.17 0.086-0.031 0.010-0.061 0.020-0.089 0.033-0.031 0.014-0.059 0.030-0.082 0.053l-0.256 0.085-0.426 0.171c-0.086 0-0.17 0-0.256 0.085-0.1 0-0.17 0.030-0.229 0.054-0.041 0.017-0.076 0.032-0.112 0.032h-0.256c-0.085 0-0.256 0-0.341 0.086h-24.491c-1.765 0-3.458-0.701-4.706-1.95s-1.95-2.941-1.95-4.706v-148.393c0-3.671 2.987-6.656 6.656-6.656h23.894c0.874 0 1.74 0.169 2.547 0.507 0.807 0.333 1.541 0.824 2.159 1.439 0.618 0.62 1.108 1.357 1.443 2.161 0.335 0.809 0.507 1.674 0.507 2.55v88.148l68.096-91.988c0.435-0.666 1.019-1.219 1.705-1.623 0 0 0.087 0 0.087-0.087l0.425-0.256c0.046 0 0.067-0.020 0.087-0.041s0.041-0.041 0.087-0.041c0.051-0.056 0.102-0.077 0.179-0.102l0.159-0.072c0.056-0.051 0.108-0.072 0.179-0.097l0.164-0.072c0.087 0 0.169-0.087 0.169-0.087 0.036-0.015 0.072-0.031 0.108-0.041 0.036-0.015 0.077-0.026 0.113-0.036 0.087-0.020 0.159-0.046 0.21-0.092h0.082c0.553-0.174 1.132-0.261 1.71-0.256h23.89c0.876 0 1.741 0.174 2.55 0.507s1.541 0.824 2.161 1.444c0.614 0.62 1.106 1.352 1.439 2.161 0.338 0.804 0.507 1.669 0.507 2.545v148.566c-0.051 1.756-0.783 3.423-2.038 4.649-1.26 1.226-2.944 1.915-4.7 1.922zM385.254 427.945h-64.938v117.846c0 1.765-0.701 3.459-1.95 4.707s-2.941 1.949-4.706 1.949h-23.894c-1.765 0-3.458-0.701-4.706-1.949s-1.95-2.941-1.95-4.707v-148.397c0-1.792 0.682-3.41 1.878-4.608l0.085-0.082 0.086-0.087c1.245-1.183 2.891-1.853 4.608-1.879h95.402c1.765 0 3.459 0.701 4.707 1.951s1.949 2.944 1.949 4.705v23.895c0.015 0.87-0.143 1.731-0.465 2.54-0.322 0.804-0.801 1.541-1.411 2.161s-1.335 1.111-2.137 1.449c-0.801 0.333-1.661 0.507-2.53 0.507h-0.029zM739.215 515.241c0.876 0 1.741 0.172 2.55 0.506s1.541 0.825 2.161 1.443c0.614 0.618 1.106 1.352 1.439 2.16 0.338 0.807 0.507 1.673 0.507 2.547v23.893c0 0.874-0.169 1.74-0.507 2.547-0.333 0.807-0.824 1.542-1.439 2.16-0.62 0.618-1.352 1.108-2.161 1.443s-1.674 0.506-2.55 0.506h-95.401c-0.855 0.008-1.7-0.155-2.493-0.477-0.788-0.323-1.51-0.798-2.115-1.4l-0.087-0.086c0-0.086-0.082-0.086-0.082-0.086-1.183-1.245-1.853-2.89-1.879-4.608v-148.397c0-1.792 0.681-3.41 1.879-4.608l0.169-0.169c1.244-1.183 2.893-1.853 4.608-1.879h95.401c0.876 0 1.741 0.174 2.55 0.507 0.809 0.338 1.541 0.824 2.161 1.444 0.614 0.62 1.106 1.352 1.439 2.161 0.338 0.809 0.507 1.674 0.507 2.545v23.895c0 0.876-0.169 1.741-0.507 2.55-0.333 0.804-0.824 1.541-1.439 2.156-0.62 0.62-1.352 1.111-2.161 1.444s-1.674 0.507-2.55 0.507h-64.937v25.089h64.937c0.876 0 1.741 0.172 2.55 0.506s1.541 0.825 2.161 1.443c0.614 0.618 1.106 1.352 1.439 2.16 0.338 0.807 0.507 1.673 0.507 2.547v23.893c0 0.874-0.169 1.74-0.507 2.547-0.333 0.807-0.824 1.542-1.439 2.16-0.62 0.618-1.352 1.108-2.161 1.443s-1.674 0.506-2.55 0.506h-64.937v25.088h64.937v-0.085z" />
<glyph unicode="&#xe92a;" glyph-name="weibo-circle" d="M1024 448c0 282.766-229.233 512-512 512-282.766 0-512-229.234-512-512 0-282.767 229.234-512 512-512 282.767 0 512 229.233 512 512zM216.265 302.080c8.078-80.041 115.2-135.281 239.331-123.167v-0.026c123.987 12.032 218.114 86.784 209.947 166.968-7.962 80.041-115.113 135.282-239.217 123.193-124.018-12.118-218.112-86.754-210.062-166.969zM703.427 445.005l0.261-0.077c43.008-13.112 90.911-44.856 90.798-100.808 0-92.472-135.567-208.952-339.429-208.952-155.421 0-314.397 74.153-314.397 196.040 0 63.77 41.074 137.528 111.702 206.989 94.435 92.9 204.572 135.225 245.959 94.436 18.206-18.006 19.941-49.038 8.249-86.187-6.201-18.602 17.775-8.334 17.775-8.334 76.349 31.431 142.935 33.28 167.255-0.91 13.030-18.318 11.776-43.862-0.225-73.444-5.417-13.512 1.669-15.638 12.052-18.753zM650.214 728.149c67.016 14.052 139.633-6.4 188.872-60.131 23.306-25.2 39.444-56.179 46.735-89.721s5.473-68.425-5.263-101.027v-0.086c-2.437-7.16-7.588-13.074-14.351-16.464-6.758-3.39-14.582-3.985-21.775-1.654-3.564 1.094-6.871 2.885-9.738 5.27-2.862 2.385-5.222 5.316-6.943 8.622s-2.77 6.922-3.077 10.636c-0.312 3.714 0.123 7.453 1.27 10.999 7.624 23.19 8.909 47.995 3.727 71.849s-16.64 45.892-33.198 63.831c-34.985 38.172-86.584 52.707-134.257 42.752-15.529-3.271-30.72 6.4-34.017 21.646-0.768 3.645-0.809 7.406-0.118 11.066s2.104 7.147 4.152 10.259c2.043 3.112 4.69 5.789 7.772 7.875 3.087 2.086 6.559 3.54 10.209 4.278zM721.357 627.673c16.118-5.117 30.628-14.349 42.092-26.784 11.356-12.29 19.185-27.393 22.738-43.742 3.548-16.349 2.662-33.351-2.57-49.243-2.089-6.174-6.523-11.278-12.349-14.211-5.821-2.932-12.559-3.458-18.765-1.463-3.062 0.955-5.903 2.506-8.366 4.563-2.458 2.058-4.485 4.581-5.97 7.426-1.48 2.845-2.381 5.954-2.657 9.149-0.271 3.195 0.087 6.413 1.065 9.468 5.059 15.274 1.848 32.683-9.846 45.511-11.689 12.686-29.041 17.578-44.969 14.222-6.354-1.392-13-0.214-18.488 3.276s-9.375 9.010-10.808 15.355c-0.655 3.147-0.676 6.393-0.072 9.55s1.828 6.163 3.599 8.845c1.772 2.683 4.055 4.989 6.717 6.787 2.668 1.798 5.663 3.051 8.812 3.689 16.538 3.545 33.715 2.718 49.838-2.4zM441.005 316.247c7.481-3.072 17.066 0.394 21.418 7.736 4.153 7.424 1.451 15.672-6.002 18.319-7.338 2.842-16.554-0.63-20.878-7.741-4.238-7.112-1.963-15.36 5.461-18.314zM365.712 255.713c19.342-8.617 45.113-0.394 57.088 18.406 11.804 19.057 5.603 40.704-13.853 48.922-19.229 7.967-44.061-0.195-55.95-18.488-11.975-18.401-6.286-40.305 12.715-48.84zM316.503 342.385c25.657 51.174 92.359 80.159 151.41 65.024 61.126-15.585 92.358-72.248 67.326-127.375-25.342-56.259-98.16-86.354-159.998-66.729-59.591 18.918-84.907 76.913-58.738 129.080z" />
<glyph unicode="&#xe92b;" glyph-name="twitter-circle" d="M1024 448c0 282.766-229.233 512-512 512-282.766 0-512-229.234-512-512 0-282.767 229.234-512 512-512 282.767 0 512 229.233 512 512zM775.142 600.434c25.293 2.961 49.981 9.772 73.216 20.195-17.229-25.781-38.707-48.451-63.519-67.043 0.169-5.405 0.343-10.923 0.343-16.498 0-169.385-128.031-364.713-362.014-364.713-69.223-0.056-136.979 19.953-195.072 57.6 10.041-1.198 20.224-1.71 30.436-1.71 57.379-0.036 113.089 19.308 158.094 54.902-55.837 1.024-102.77 38.226-118.983 89.088 7.85-1.341 15.701-2.191 24.064-2.191 11.52 0 22.727 1.536 33.422 4.378-28.882 6.031-54.805 21.827-73.404 44.733-18.599 22.902-28.739 51.516-28.711 81.021v1.706c17.662-9.868 37.435-15.35 57.657-15.986-34.247 23.068-56.662 62.294-56.662 106.752-0.021 22.632 5.914 44.871 17.209 64.483 62.862-77.454 156.444-128.455 262.259-133.859-2.022 9.415-3.19 19.2-3.19 29.298 0 70.713 57.006 128.142 127.375 128.142 17.418-0.032 34.637-3.653 50.596-10.637 15.954-6.983 30.295-17.18 42.132-29.954 28.472 5.767 55.762 16.297 80.727 31.146-9.513-29.593-29.389-54.754-55.977-70.855z" />
<glyph unicode="&#xe92c;" glyph-name="hatena-circle" d="M1024 448c0 282.766-229.233 512-512 512-282.766 0-512-229.234-512-512 0-282.767 229.234-512 512-512 282.767 0 512 229.233 512 512zM492.26 466.318c33.083-2.532 58.877-14.194 77.427-34.902 18.601-20.705 27.904-48.415 27.904-82.944 0-24.975-5.207-46.792-15.672-65.705-10.26-18.775-25.887-34.058-44.887-43.894-15.785-8.417-35.329-14.561-58.596-18.202-23.296-3.558-61.383-5.407-114.205-5.407h-131.498v465.438h127.63c52.48 0 89.059-1.678 109.966-5.006 20.822-3.442 38.657-9.273 53.672-17.522 16.389-8.803 29.993-22.003 39.286-38.115 8.873-16.014 13.425-34.503 13.425-55.438 0-26.397-6.656-47.417-20.111-62.89-13.512-15.673-34.903-27.392-64.34-35.414zM377.799 577.535h-27.25v-93.383h25.315c31.261 0 52.622 3.442 64.342 10.269 11.577 6.94 17.408 18.83 17.408 35.612 0 17.465-5.49 29.753-16.27 36.864-10.922 7.083-32.057 10.638-63.545 10.638zM394.894 299.264c29.981 0 51.342 3.727 63.715 11.351 12.516 7.562 18.717 20.163 18.717 37.714 0 19.599-5.661 33.28-17.152 41.016-11.321 7.736-32.598 11.607-63.374 11.607h-46.222v-101.688h44.316zM709.745 328.73c7.153 2.954 14.817 4.475 22.559 4.47 15.631-0.015 30.618-6.231 41.661-17.295 11.044-11.059 17.244-26.056 17.234-41.687-0.015-15.631-6.236-30.618-17.295-41.661s-26.056-17.244-41.687-17.234c-7.741 0.010-15.401 1.536-22.548 4.506-7.153 2.964-13.645 7.311-19.113 12.79s-9.805 11.976-12.764 19.128c-2.954 7.153-4.475 14.817-4.47 22.559 0.015 15.631 6.231 30.618 17.295 41.661 5.473 5.468 11.976 9.805 19.128 12.764zM681.103 680.732h102.4v-310.331h-102.4v310.331z" />
<glyph unicode="&#xe92d;" glyph-name="kakaostory-circle" d="M1024 448c0 282.77-229.233 512-512 512-282.77 0-512-229.23-512-512 0-282.767 229.23-512 512-512 282.767 0 512 229.233 512 512zM382.351 750.819l259.297-0.028c17.382 0 31.462-14.052 31.462-31.289v-247.012c-3.584-75.322-24.55-214.473-168.819-325.516-3.043-2.191-7.338-2.048-11.036-1.254-3.47 0.855-7.453 5.12-7.453 5.12l-83.314 93.384c-2.333 3.297-4.409 6.487-4.409 10.639 0 5.345 2.617 9.216 6.087 12.513 0.398 0.287 44.686 37.12 65.507 70.344 18.489 29.527 31.289 62.776 32.142 93.414h-119.466c-17.494 0-31.574 13.906-31.574 31.286v257.081c0 17.237 14.222 31.317 31.574 31.317z" />
<glyph unicode="&#xe92e;" glyph-name="mixi-circle" d="M1024 448c0-282.767-229.233-512-512-512-282.766 0-512 229.233-512 512s229.234 512 512 512c282.767 0 512-229.234 512-512zM879.135 477.128c0 171.235-163.471 302.25-367.135 294.457-202.354-9.074-367.104-154.368-367.104-325.602 0-171.238 164.75-303.534 367.104-294.456 9.457 0 17.833 1.060 27.116 2.237l2.749 0.348v-64.855c0 0 337.27 97.28 337.27 372.312v15.559zM718.223 490.098c0 16.868-2.56 32.427-7.767 47.986-7.767 22.073-22.042 37.632-44.088 45.426-11.663 3.868-23.352 5.177-36.321 5.177-29.87-1.309-55.782-11.662-77.855-32.426-5.13-3.86-9.001-9.005-12.861-14.134l-0.108-0.145c-1.28-2.589-3.896-6.486-3.896-6.486s-2.56 5.206-3.871 6.486l-3.896 7.794c-12.969 20.764-31.148 33.735-54.5 37.603-29.838 5.206-55.751-1.28-79.104-20.764-4.627-3.834-8.794-8.601-13.047-13.467l-0.001-0.001c-2.91-3.328-5.859-6.703-9.025-9.857-1.28-1.308-5.177-9.102-5.177-9.102v49.323h-46.706v-262.061h46.706v132.326c0 15.559 1.28 31.146 7.766 45.397 6.514 15.588 15.587 27.25 28.558 36.324 19.456 11.662 38.912 15.559 60.956 9.102 11.662-3.897 20.765-10.411 25.942-22.073 3.897-9.102 6.485-18.148 7.794-27.25v-175.106h46.704v153.062c1.28 10.382 3.896 19.456 7.767 29.838 6.569 14.534 16.876 27.067 29.865 36.323 15.56 10.382 33.71 11.662 51.886 9.102 11.658-1.309 20.762-7.794 27.218-18.205 6.487-7.765 9.103-18.147 10.383-27.221v-180.34h46.705l-0.026 167.369z" />
<glyph unicode="&#xe92f;" glyph-name="pinterest-circle" d="M512.031 960c-282.74 0-512.031-229.234-512.031-512.031 0-209.603 126.094-389.745 306.546-468.905-1.45 35.697-0.256 78.679 8.818 117.591 9.899 41.528 65.878 278.953 65.878 278.953s-16.298 32.681-16.298 81.039c0 75.862 44.003 132.522 98.73 132.522 46.564 0 69.063-34.986 69.063-76.885 0-46.791-29.866-116.821-45.226-181.676-12.8-54.354 27.219-98.616 80.81-98.616 96.993 0 162.335 124.585 162.335 272.214 0 112.185-75.581 196.153-213.053 196.153-155.248 0-252.016-115.769-252.016-245.106 0-44.66 13.142-76.087 33.735-100.407 9.501-11.295 10.752-15.734 7.338-28.616-2.418-9.334-8.078-32.087-10.439-41.078-3.414-12.938-13.881-17.633-25.6-12.8-71.566 29.184-104.875 107.52-104.875 195.615 0 145.408 122.653 319.886 365.91 319.886 195.497 0 324.183-141.54 324.183-293.348 0-200.844-111.647-350.89-276.311-350.89-55.209 0-107.236 29.865-125.071 63.744 0 0-29.724-117.929-35.982-140.713-10.837-39.424-32.114-78.935-51.541-109.624 46.051-13.629 94.72-21.023 145.066-21.023 282.767 0 512 229.233 512 511.969 0 282.768-229.233 512.031-511.969 512.031z" />
<glyph unicode="&#xe930;" glyph-name="wechat-circle" d="M1024 448c0 282.766-229.233 512-512 512-282.766 0-512-229.234-512-512 0-282.767 229.234-512 512-512 282.767 0 512 229.233 512 512zM470.941 582.217c7.095-7.095 16.717-11.081 26.75-11.081s19.654 3.986 26.75 11.081c7.096 7.095 11.080 16.717 11.080 26.75s-3.983 19.656-11.080 26.75c-7.096 7.095-16.716 11.081-26.75 11.081s-19.656-3.986-26.75-11.081c-7.095-7.094-11.080-16.717-11.080-26.75s3.985-19.656 11.080-26.75zM281.912 582.247c7.087-7.103 16.705-11.1 26.738-11.111s19.66 3.964 26.763 11.050c7.102 7.087 11.099 16.705 11.11 26.738s-3.963 19.66-11.050 26.763c-7.087 7.103-16.705 11.1-26.738 11.111s-19.66-3.963-26.763-11.050c-7.102-7.087-11.099-16.705-11.11-26.738s3.963-19.66 11.050-26.763zM119.58 533.362c0 130.475 126.948 236.317 283.591 236.317 141.485 0 258.733-86.358 280.119-199.082-5.033 0.256-10.179 0.398-15.36 0.398-142.848 0-258.672-96.54-258.672-215.554 0.024-19.697 3.232-39.265 9.501-57.938-36.491-1.72-73.018 2.514-108.146 12.544-2.702 0.737-5.462 1.224-8.334 1.224-5.405 0-10.411-1.71-15.076-4.383l-62.066-35.84c-1.763-1.024-3.442-1.761-5.462-1.761-5.177 0-9.443 4.265-9.443 9.441 0 1.674 0.512 3.384 1.010 5.043v0c0.186 0.62 0.371 1.239 0.526 1.838 0.342 1.341 7.965 29.896 12.771 47.703 0.607 1.956 0.942 3.983 0.996 6.031 0 6.313-3.158 11.945-7.965 15.36-59.818 43.32-97.991 107.406-97.991 178.659zM724.393 396.042c5.903-5.908 13.916-9.226 22.272-9.226s16.369 3.318 22.277 9.226c5.908 5.908 9.226 13.921 9.226 22.277s-3.318 16.369-9.226 22.277c-5.908 5.903-13.921 9.225-22.277 9.225s-16.369-3.321-22.272-9.225c-5.908-5.908-9.231-13.921-9.231-22.277s3.323-16.369 9.231-22.277zM566.866 396.042c5.908-5.908 13.921-9.226 22.277-9.226 8.351 0 16.364 3.318 22.272 9.226s9.226 13.921 9.226 22.277c0 8.356-3.318 16.369-9.226 22.277-5.908 5.903-13.921 9.225-22.272 9.225-8.356 0-16.369-3.321-22.277-9.225-5.908-5.908-9.226-13.921-9.226-22.277s3.318-16.369 9.226-22.277zM904.335 355.302c0-59.366-31.831-112.783-81.695-148.879-2.068-1.439-3.753-3.369-4.895-5.622-1.142-2.248-1.705-4.741-1.649-7.265 0.036-1.695 0.302-3.379 0.799-5.007l10.665-39.736 0.302-0.978c0.481-1.531 0.978-3.128 0.978-4.767 0.005-1.039-0.2-2.068-0.594-3.026s-0.978-1.833-1.715-2.565c-0.732-0.732-1.608-1.311-2.57-1.705-0.957-0.394-1.987-0.589-3.026-0.584-1.649 0-3.072 0.655-4.495 1.51l-51.768 29.865c-2.872 1.807-6.093 2.975-9.457 3.436-3.359 0.456-6.779 0.184-10.030-0.788-24.146-6.973-50.176-10.813-77.194-10.813-130.534 0-236.319 88.182-236.319 196.925 0 108.769 105.759 196.947 236.319 196.947 130.499 0 236.344-88.178 236.344-196.947z" />
<glyph unicode="&#xe931;" glyph-name="google-circle" d="M1024 448c0 282.766-229.233 512-512 512-282.766 0-512-229.234-512-512 0-282.767 229.234-512 512-512 282.767 0 512 229.233 512 512zM798.433 570.68v-81.010h80.87v-57.855h-80.896v-83.343h-57.743v83.313h-83.169v57.886h83.169v81.010h57.769zM504.12 401.833c-36.494 0-126.151-0.113-126.151-0.113v92.558h224.112c15.59-112.014-31.488-280.037-224.112-280.037-128.882 0-233.358 104.648-233.358 233.759 0 129.109 104.476 233.784 233.358 233.784 58.109 0.065 114.132-21.655 157.015-60.871-32.173-30.429-42.448-41.999-51.204-51.856-4.535-5.107-8.663-9.754-15.215-16.326-23.979 19.911-50.119 34.134-90.596 34.134-76.572 0-136.334-62.18-136.334-138.866s59.762-138.895 136.334-138.895c75.634 0 106.382 32.712 126.151 92.728z" />
<glyph unicode="&#xe932;" glyph-name="tencent-circle" d="M1024 448c0 282.766-229.233 512-512 512-282.766 0-512-229.234-512-512 0-282.767 229.234-512 512-512 282.767 0 512 229.233 512 512zM722.944 531.342c13.256-18.262 18.176-49.209 19.968-75.008h-0.225v-0.086h0.113c32.737-50.345 68.977-127.202 28.728-201.273-20.567 8.96-37.094 28.416-42.496 52.48-15.56-38.4-38.487-74.665-69.32-102.825 44.119-8.535 75.433-29.302 74.409-52.055-1.306-27.991-51.338-48.384-111.672-45.655-50.202 2.304-91.761 19.968-103.537 42.158-1.28-0.174-10.809-0.174-12.089 0-11.805-22.103-53.334-39.736-103.538-42.158-60.331-2.872-110.393 17.664-111.673 45.655-1.053 22.697 30.293 43.52 74.467 52.137-30.806 28.022-53.703 64.43-69.347 102.83-5.405-24.064-21.959-43.52-42.553-52.48-40.391 74.122-4.125 150.922 28.729 201.271 1.678 25.913 6.656 56.718 19.882 75.008-12.8 163.129 98.105 256.142 210.064 257.991 111.954 1.65 222.889-94.862 210.089-257.991zM607.657 621.738c1.024 32.683-16.21 59.734-38.4 60.416-22.042 0.626-40.96-25.173-41.953-57.799-0.998-32.768 16.072-59.676 38.257-60.444s41.016 25.145 42.097 57.827zM496.47 626.176c-1.11 33.763-20.48 60.502-43.35 59.648l-0.057-0.057c-22.813-0.569-40.448-28.586-39.367-62.294 1.053-33.735 20.48-60.444 43.293-59.591 22.841 0.654 40.533 28.587 39.481 62.294zM512.855 555.776c-48.698-0.17-127.49-16.214-130.477-29.44h-0.057c-1.906-9.642 41.245-43.178 68.551-54.016 9.52-3.756 16.367-8.065 22.663-12.028 11.013-6.931 20.344-12.804 39.345-12.804 18.99 0 28.308 5.864 39.27 12.767 6.333 3.985 13.215 8.317 22.825 12.065 27.192 10.838 70.4 44.345 68.439 54.016-3.072 13.142-81.807 29.725-130.56 29.44zM351.431 409.8c-45.085-161.848 57.514-243.912 161.424-244.198l0.026-0.056c103.936-0.338 206.592 82.35 161.367 244.142-41.073-21.903-101.094-38.487-161.393-38.4-22.501 0-44.944 2.217-66.362 6.257 0.739-23.071 1.337-87.721-3.982-91.535-5.974-4.465-72.932 4.977-75.094 17.551-1.849 10.465 2.56 76.344 3.982 96.655-7.026 3.128-13.71 6.17-19.968 9.585zM450.020 626.119c-0.427 14.848 6.969 27.107 16.64 27.449v-0.029c9.586 0.256 17.778-11.577 18.204-26.396 0.426-14.848-7.026-27.050-16.64-27.478-9.586-0.199-17.778 11.549-18.204 26.454zM464.81 628.822c0.142-6.116 3.243-10.838 6.827-10.667 3.641 0.086 6.4 5.12 6.201 11.094-0.228 5.974-3.3 10.838-6.912 10.666-3.641-0.085-6.372-4.978-6.116-11.093zM581.775 610.361c-1.157 0.037-2.248 0.526-3.046 1.361s-1.239 1.95-1.224 3.105c0.256 4.267-0.512 16.1-5.888 21.76-0.963 1.034-2.145 1.844-3.456 2.375s-2.724 0.769-4.137 0.697c-13.865 0-14.863-19.343-15.002-22.022l-0.015-0.279c0-2.56-1.848-4.494-4.439-4.494-2.616 0-4.265 2.134-4.265 4.522 0 10.809 5.033 31.147 23.808 31.147 5.545 0 10.153-1.991 13.906-5.86 9.103-9.5 8.392-27.506 8.31-28.16 0-2.247-1.91-4.067-4.352-4.153h-0.2zM525.425 463.256c-4.091-0.701-7.020-1.203-12.57-1.033l-0.031-0.029c-5.489 0.171-8.476 0.342-12.543 1.081-7.111 1.347-14.299 6.347-21.335 11.242l-0.001 0.001c-3.517 2.446-6.996 4.867-10.409 6.791-6.15 3.806-10.904 6.347-15.321 8.708-11.398 6.092-20.56 10.989-45.692 33.333 20.070-16.665 43.414-28.932 68.522-36.011 6.23-1.763 21.191-3.328 36.834-3.072 15.647 0.086 30.607 1.252 36.864 3.101 25.083 7.138 48.42 19.379 68.552 35.954-25.221-22.425-34.324-27.309-45.763-33.444l-0.005-0.001c-4.388-2.355-9.124-4.895-15.247-8.681-3.451-1.919-6.973-4.349-10.537-6.806v-0.002c-6.994-4.826-14.136-9.755-21.207-11.112l-0.113-0.019z" />
<glyph unicode="&#xe933;" glyph-name="band-circle" d="M1024 448c0 282.766-229.233 512-512 512-282.766 0-512-229.234-512-512 0-282.767 229.234-512 512-512 282.767 0 512 229.233 512 512zM439.381 654.849c23.268 6.002 47.446 9.102 72.534 9.102 162.558 0 294.429-132.010 294.598-294.599 0.010-38.692-7.608-77-22.41-112.748s-36.5-68.224-63.857-95.58c-27.361-27.361-59.837-49.060-95.585-63.862-35.743-14.802-74.056-22.415-112.746-22.41-161.678 0-292.95 130.391-294.428 291.697v138.383c0 0 0.199 208.385 0.37 209.665 4.551 61.468 52.394 106.752 110.563 106.752 58.226 0 106.013-45.454 110.564-106.752 0.199-1.252 0.398-2.532 0.398-3.812v-55.836zM335.639 193.075c46.752-46.751 110.158-73.027 176.276-73.042 137.67 0 249.342 111.647 249.342 249.487 0 38.953-9.124 77.358-26.639 112.146-17.521 34.788-42.941 64.99-74.23 88.184-31.293 23.194-67.579 38.736-105.958 45.381s-77.782 4.207-115.048-7.117v-45.625c31.211 11.713 64.795 15.687 97.876 11.581 33.085-4.105 64.676-16.166 92.078-35.152s49.797-44.328 65.26-73.86c15.468-29.531 23.542-62.371 23.542-95.707-0.015-54.687-21.745-107.136-60.416-145.802-38.671-38.671-91.116-60.406-145.806-60.421-27.071 0.005-53.876 5.34-78.883 15.708s-47.726 25.564-66.859 44.713c-19.133 19.154-34.305 41.887-44.648 66.903s-15.655 51.83-15.633 78.899v341.333c0 11.094 10.013 21.618 22.528 21.618 12.374 0 22.557-10.524 22.557-21.618v-341.333c-0.008-21.135 4.15-42.066 12.235-61.599 8.086-19.528 19.94-37.274 34.886-52.219s32.691-26.798 52.22-34.888c19.529-8.084 40.46-12.242 61.597-12.232 21.144-0.015 42.080 4.142 61.613 12.227s37.284 19.942 52.234 34.893c14.95 14.95 26.803 32.696 34.893 52.234 8.084 19.533 12.237 40.468 12.227 61.609 0.015 27.494-7.014 54.533-20.424 78.541-13.409 24.002-32.742 44.169-56.161 58.575-23.414 14.406-50.135 22.57-77.604 23.714-27.472 1.143-54.777-4.772-79.311-17.183v-50.574c19.968 15.644 45.255 24.917 72.534 24.917 31.302 0 61.316-12.433 83.449-34.566s34.565-52.151 34.565-83.449c0-31.299-12.431-61.317-34.565-83.451s-52.147-34.565-83.449-34.565c-65.11 0-117.846 55.639-117.846 120.945l0.199 336.214c0.045 8.686-1.624 17.295-4.91 25.334s-8.127 15.352-14.243 21.519c-6.116 6.167-13.389 11.066-21.402 14.418s-16.608 5.091-25.293 5.117c-8.683-0.030-17.275-1.772-25.285-5.126s-15.279-8.254-21.392-14.42c-6.113-6.166-10.951-13.477-14.236-21.515s-4.953-16.645-4.908-25.328v-339.143c0.015-66.12 26.287-129.526 73.039-176.276zM460.659 420.608c-13.596-13.599-21.247-32.031-21.278-51.256h-0.057c0-19.246 7.645-37.704 21.253-51.308 13.608-13.609 32.064-21.253 51.309-21.253 19.242 0 37.7 7.644 51.309 21.253 13.609 13.604 21.253 32.061 21.253 51.308-0.031 19.226-7.68 37.658-21.279 51.256-13.594 13.594-32.026 21.248-51.255 21.279-19.228-0.031-37.66-7.685-51.256-21.279z" />
<glyph unicode="&#xe934;" glyph-name="facebook-circle" d="M511.288-64v371.599h-125.014v144.781h125.014v106.723c0 123.99 75.633 191.431 186.113 191.431 53.105 0 98.529-4.096 111.872-5.802v-129.422h-76.687c-60.104 0-71.706-28.53-71.706-70.542v-92.387h143.242l-18.601-144.781h-124.641v-349.619c210.156 63.77 363.121 259.031 363.121 490.020 0 282.77-229.233 512-512 512-282.77 0-512-229.23-512-512 0-282.532 228.846-511.616 511.288-512z" />
<glyph unicode="&#xe935;" glyph-name="link-circle" d="M1024 448c0 282.766-229.233 512-512 512-282.766 0-512-229.234-512-512 0-282.767 229.234-512 512-512 282.767 0 512 229.233 512 512zM341.476 551.935c-50.574 0-96.768-34.048-106.126-83.086-3.035-15.11-2.684-30.675 1.029-45.63 3.713-14.961 10.695-28.908 20.444-40.842s22.022-21.56 35.937-28.186c13.915-6.625 29.096-10.112 44.507-10.158h106.496c20.509 0 37.433-16.865 37.433-37.402 0-20.511-16.953-37.432-37.462-37.432h-106.439c-24.95 0-49.623 5.228-72.43 15.345s-43.241 24.899-59.987 43.392c-16.745 18.499-29.431 40.294-37.239 63.99-7.808 23.7-10.565 48.768-8.094 73.595 8.96 93.184 92.331 161.281 185.401 161.281h98.816c20.509 0 37.433-16.925 37.433-37.433s-16.925-37.404-37.433-37.404l-102.286-0.029zM616.561 408.858h-209.464c-21.532 0-39.168 17.582-39.168 39.142 0.023 10.381 4.156 20.33 11.497 27.671s17.29 11.474 27.671 11.497h209.464c10.383-0.023 20.332-4.156 27.674-11.497 7.337-7.341 11.474-17.29 11.494-27.671-0.020-10.383-4.157-20.332-11.494-27.674-7.342-7.337-17.29-11.443-27.674-11.469zM579.927 626.802h98.785c93.041 0 176.84-68.125 185.769-161.309 2.401-24.835-0.445-49.903-8.305-73.588-7.854-23.68-20.572-45.46-37.335-63.944s-37.207-33.254-60.017-43.377c-22.81-10.117-47.478-15.36-72.433-15.386h-106.465c-20.511 0-37.432 16.896-37.432 37.432s16.922 37.402 37.432 37.402h106.465c15.411 0.051 30.618 3.512 44.529 10.138s26.179 16.251 35.927 28.186c9.743 11.94 16.722 25.887 20.434 40.837 3.712 14.956 4.060 30.549 1.029 45.656-9.334 49.038-55.526 83.086-106.102 83.086h-102.282c-20.511 0-37.432 16.953-37.432 37.433 0 20.509 16.922 37.433 37.432 37.433z" />
<glyph unicode="&#xe936;" glyph-name="qzone-circle" d="M512-64c282.767 0 512 229.233 512 512 0 282.77-229.233 512-512 512-282.77 0-512-229.23-512-512 0-282.767 229.23-512 512-512zM848.384 574.069c18.924-1.063 41.61-2.339 45.517-11.118 3.579-8.026-3.246-14.848-7.122-18.719l-0.184-0.185-136.673-128.744c-1.347-1.198-3.139-2.734-5.222-4.521-11.612-9.974-32.21-27.658-34.744-36.669-1.956-6.963 1.172-20.915 4.639-36.388 0.773-3.441 1.562-6.958 2.314-10.491 8.709 1.577 17.521 3.4 26.609 5.637 15.601 3.85 25.016 7.066 25.016 7.066s-5.043-7.076-21.97-14.331l-26.542-10.675 28.677-157.117c0.23-1.050 0.497-2.217 0.783-3.487 3.43-15.078 10.004-43.971-4.746-47.457-7.245-1.715-13.297 2.186-17.505 4.895-0.497 0.323-0.968 0.625-1.413 0.901l-36.915 21.356-128.44 74.132c-1.572 0.947-3.61 2.273-5.99 3.814-12.365 8.028-33.864 21.985-46.48 19.676-8.904-1.628-14.923-5.315-21.242-9.185-0.645-0.394-1.292-0.788-1.946-1.188l-194.036-112.271c-5.944-2.903-14.484-2.755-18.916 1.219-3.376 3.026-4.292 12.129-3.052 18.611l9.152 48.2 27.456 144.916c0.156 0.676 0.345 1.485 0.562 2.412 2.876 12.273 10.546 45 7.37 52.198-1.989 4.506-6.813 8.315-10.814 11.469-0.586 0.461-1.154 0.911-1.693 1.341l-29.288 27.156-102.204 95.185c-4.531 3.645-8.671 7.773-12.802 11.892-4.155 4.142-8.301 8.275-12.826 11.9l-11.288 10.376c-2.964 3.724-7.908 11.292-4.272 17.696 4.918 8.65 27.235 10.278 45.754 11.628 7.043 0.514 13.536 0.987 18.314 1.792l128.744 14.948 39.356 4.268c2.486 0.421 5.020 0.568 7.502 0.713 4.477 0.261 8.784 0.511 12.33 2.339 9.985 5.148 21.18 30.83 27.87 46.175 0.983 2.255 1.868 4.286 2.638 5.997l62.848 130.268c4.060 7.961 7.869 16.039 11.655 24.067 3.007 6.377 6 12.722 9.090 18.95 0.387 0.78 0.765 1.565 1.142 2.348 3.089 6.417 6.108 12.686 13.502 14.736 7.191 1.998 11.635-4.047 14.349-7.734 0.21-0.284 0.41-0.554 0.599-0.806 6.17-8.208 11.602-21.84 16.445-33.981 1.818-4.567 3.553-8.923 5.212-12.699l61.932-136.98c0.998-2.29 2.304-5.522 3.809-9.269 6.011-14.937 15.319-38.057 22.124-42.291 8.212-5.111 22.943-5.789 37.115-6.442 7.818-0.36 15.473-0.713 21.765-1.798l136.376-14.036c4.936-0.86 12.037-1.26 19.763-1.694zM714.214 339.63c0 0 18.504-0.814-56.75 1.224-30.269 0.328-125.604 8.187-130.268 8.54-13.42 1.224-26.848 2.442-40.268 3.661-6.756 1.085-15.712-0.584-19.22 3.661v0.916c82.866 56.084 163.506 116.008 246.813 171.756-0.102 0.716-0.205 1.424-0.307 2.136-7.020 3.448-17.208 2.832-25.928 4.58-18.468 3.692-37.929 3.704-57.969 7.016-35.988 5.948-76.334 5.488-116.844 5.492-56.238 0.008-111.778-1.476-160.782-10.068-21.616-3.788-42.936-4.576-62.844-9.456-8.256-2.024-17.2-1.432-23.492-5.184 0.1-0.204 0.204-0.408 0.304-0.612 4.8-1.296 12.14-0.916 18.304-0.916 14.848-0.304 29.696-0.608 44.544-0.916 12.916-0.408 25.832-0.816 38.744-1.224 13.016-0.508 26.036-1.016 39.052-1.524 9.456-0.508 18.916-1.020 28.372-1.528 23.312-3.636 48.308-1.72 70.78-5.488 19.399-3.256 38.599-3.116 56.744-6.712 5.417-1.076 11.781-0.72 15.862-3.056v-0.304c-1.879-4.532-16.138-12.268-20.746-15.252-16.876-11.896-33.761-23.796-50.643-35.696-36.096-25.926-72.204-51.864-108.304-77.791-22.676-15.867-45.356-31.734-68.032-47.59 0.152-2.309 1.188-1.654 2.192-2.944 55.152-7.992 120.968-12.38 180.976-12.57 62.295-0.2 118.333 4.531 149.678 9.298 26.916 4.096 51.922 7.030 79.324 13.783 15.601 3.845 25.016 7.060 25.016 7.060l-54.308-0.292z" />
</font>
</defs>
</svg>
